<?xml version="1.0" encoding="UTF-8"?>
<svg width="1726px" height="879px" viewBox="0 0 1726 879" version="1.1" xmlns="http://www.w3.org/2000/svg" xmlns:xlink="http://www.w3.org/1999/xlink">
    <!-- Generator: Sketch 40.2 (33826) - http://www.bohemiancoding.com/sketch -->
    <title>Group</title>
    <desc>Created with Sketch.</desc>
    <defs></defs>
    <g id="Page-1" stroke="none" stroke-width="1" fill="none" fill-rule="evenodd">
        <g id="Group" transform="translate(863.000000, 439.500000) scale(1, -1) translate(-863.000000, -439.500000) " fill="#FFFFFF">
            <path d="M871,877.5 C876.2,876.8 886.1,874.5 893,872.5 C903,869.6 907.6,867.6 916,862.6 C921.8,859.1 929.2,854.8 932.5,853 C943.1,847.1 951.6,839.3 956.4,831 C964.7,816.8 969.7,805.5 972,796.1 C974,787.9 974.2,785.1 973.7,773.1 C973.4,764.6 972.7,758.1 971.8,756 C969.4,750.3 968.7,745 970.1,743.3 C970.8,742.5 975,740 979.4,737.8 C994.2,730.4 1008.6,717 1031,690 C1034.4,685.9 1041.3,677.6 1046.4,671.7 C1051.4,665.7 1057.6,657.6 1060.1,653.7 C1067.7,641.7 1083.8,612.6 1089.6,600.5 C1092.6,594.2 1097.5,583.7 1100.6,577.3 C1103.7,570.8 1107.5,561 1109,555.5 C1110.5,550 1113.8,539.7 1116.3,532.5 C1118.8,525.4 1122,515 1123.4,509.5 C1124.8,504 1127.3,496 1129,491.7 C1130.6,487.4 1132,482.4 1132,480.5 C1132,476.1 1135.5,470.2 1138.6,469.4 C1139.9,469.1 1144,469.5 1147.7,470.3 C1151.5,471.2 1157.9,472.2 1162,472.5 C1166.1,472.8 1187.5,476.4 1209.5,480.5 C1231.5,484.6 1256.8,488.9 1265.8,490 C1284.5,492.4 1294.6,494.2 1308,497.5 C1313.2,498.8 1322.2,500.6 1328,501.5 C1333.8,502.4 1342.8,503.8 1348,504.6 C1353.2,505.4 1363.1,507.4 1370,509 C1376.9,510.6 1396,514.5 1412.5,517.5 C1429,520.6 1446,524 1450.3,525.1 C1454.6,526.2 1465.4,528.4 1474.3,530.1 C1483.2,531.8 1502,536 1516,539.5 C1530,542.9 1543.3,546.1 1545.5,546.4 C1547.7,546.8 1555.1,548.4 1562,550 C1568.9,551.6 1580.1,554.1 1587,555.6 C1593.9,557.1 1602.2,558.9 1605.5,559.6 C1608.8,560.4 1616.7,561.7 1623,562.5 C1629.3,563.4 1637.9,565 1642,566 C1646.1,567 1653.3,568.1 1658,568.5 L1666.5,569.2 L1674.5,563.2 C1691.6,550.4 1707.5,527 1712,508 C1712.7,505 1714.4,498.9 1715.7,494.5 C1717,490.1 1719.5,481.6 1721.1,475.5 L1724.2,464.5 L1724.7,427 L1725.2,389.5 L1722,372.5 C1720.3,363.2 1717.6,351.2 1716,346 C1714.4,340.8 1712.4,333.6 1711.5,330 C1710.1,324.2 1707.1,317.1 1694.7,291 C1686.1,273 1675,256.7 1657.3,236 C1651.9,229.7 1645.3,221.8 1642.6,218.5 C1626.9,198.9 1563.3,158 1536,149.9 C1531.9,148.7 1524.6,146.2 1519.8,144.4 C1515,142.6 1507.4,140.4 1503,139.6 C1498.6,138.7 1489.7,136.4 1483.2,134.5 C1476.8,132.5 1465.9,129.8 1459,128.4 C1452.1,127 1442.9,124.8 1438.5,123.5 C1434.1,122.1 1426.9,120.6 1422.5,120 C1418.1,119.4 1406.2,117.4 1396,115.5 C1385.8,113.6 1371.4,111.6 1364,111 C1356.6,110.4 1336.3,108.1 1319,106 C1301.7,103.8 1280.1,101.6 1271,101 C1261.9,100.4 1245.7,98.8 1235,97.4 C1214,94.7 1201.4,93.9 1134,91.6 C1110.1,90.7 1087.1,89.5 1083,88.9 C1078.9,88.3 1072.8,87.5 1069.5,87 C1066.2,86.6 1059.7,85.2 1055,84 C1047.9,82.2 1045.2,80.8 1038.5,75.9 C1029.1,68.9 1018.4,57.1 1016.9,52 C1016,48.9 1016.2,47.7 1018.4,42.6 C1021.8,34.9 1022,23.2 1018.9,15 C1017.8,12 1016.6,8.8 1016.4,8 C1015.5,5.3 1008,0.8 1003.5,0.2 C999.9,-0.2 999,0.1 998.1,1.8 C996.8,4.3 997.5,6.3 1001.5,11.6 C1007.9,20 1007.9,20.4 1001.6,34.5 C997,44.8 996,47.9 996,52.5 C996,57.2 995.6,58.5 993.5,60.6 C991.7,62.4 990.4,62.9 989.2,62.5 C988.3,62 984.9,61.5 981.8,61.2 C977.3,60.9 976,61.1 976,62.1 C976,64.8 979.9,69.8 986.9,76 C995.9,84.1 995.4,84.8 981,85.5 C962.7,86.3 948.8,83.4 926,73.7 C921.3,71.7 913,68.9 907.5,67.4 C898.3,65 895.3,64.7 869,64 C851.4,63.5 837.6,63.5 833,64.1 C809.2,67.2 784.9,73.6 771.5,80.3 C763.3,84.4 751.8,88 746.6,88 C745,88 742.8,87.3 741.8,86.3 C738.6,83.4 739.6,80.5 745.6,75.4 C754.5,67.8 754.7,65.4 746.4,63.9 C738.7,62.4 736,59 731.7,45.2 C729.7,38.8 727.8,31 727.5,28 C726.9,22.8 727.1,22.1 731,15.7 C733.2,12 734.8,8.5 734.4,7.9 C733,5.6 725.1,7.8 719.9,11.8 C716,14.8 714.1,17.2 711.9,22.1 C709.3,27.9 709.1,29.6 709,39.6 C709,52.2 707.8,60.4 705,67.2 C702.1,73.9 702.3,76.2 705.7,75.8 C707.6,75.6 708.6,74.7 709.3,72.5 C710.6,68.3 713.9,65 716.8,65 C720.2,65 726,71 726,74.5 C726,79.1 703.9,100.7 679.6,119.9 C666.5,130.2 665.5,126.9 677.8,114.1 C680.7,111 686.1,104.1 689.6,98.8 C693.1,93.4 696.5,89 697,89 C698.6,89 698.1,86 696.4,85.3 C695.6,85 691.5,85.7 687.4,87 C681.8,88.6 675.6,89.4 662.3,90.1 C652.5,90.5 641.4,91.5 637.5,92.1 C633.7,92.8 624,93.4 616,93.5 C591.2,93.9 548.8,95.9 543,97 C540,97.5 522.2,98.7 503.5,99.5 C451.4,101.9 440.5,102.6 439.1,103.4 C438.4,103.8 430.6,104.6 421.7,105 C412.8,105.5 400.3,106.8 394,107.9 C387.7,109.1 378.7,110 374,110 C369.3,110 363.7,110.5 361.5,111 C359.3,111.5 352.8,112.4 347,113 C329.4,114.7 309.4,118 285,123.1 C279.8,124.2 270.1,125.7 263.5,126.5 C239.8,129.2 216.9,135.1 189,145.5 C178.3,149.5 167.5,153.3 165.1,154 C160,155.3 133.4,169 120.5,176.9 C106.4,185.5 100.6,190.3 85.2,205.9 C73.6,217.7 68.7,223.8 59.3,237.5 C46.8,255.7 32.7,281.2 29,292.6 C27.7,296.4 24.1,305.1 21,312 C10.4,335.3 6.1,348.6 4.5,362.5 C4.2,365.8 3.2,372 2.4,376.4 C0.5,387.1 0.5,427.7 2.5,442.6 C3.3,448.6 5.2,460.7 6.9,469.5 C8.5,478.3 10.1,488 10.5,491 C11.6,501.2 15.3,514.4 21.7,531.4 C25.1,540.6 28,548.8 28,549.4 C28,550.1 30.3,552.3 33,554.4 C36.5,557.1 38,558.9 38,560.6 C38,562.9 38.3,563 44.6,563 C48.2,563 54.6,562.1 58.8,561.1 C63.1,560 68.8,558.8 71.5,558.5 C74.3,558.1 83,556.8 91,555.5 C99,554.2 110.5,552.4 116.5,551.5 C122.6,550.6 139,546.9 153,543.5 C167,540 182.3,536.6 187,536 C191.7,535.4 199,534 203.3,532.9 C207.6,531.8 233.7,526.7 261.3,521.5 C288.9,516.3 314,511.3 317,510.5 C320,509.7 328.8,507.9 336.5,506.5 C344.2,505.1 359.7,501.7 371,499 C404.9,491 414.9,488.9 427.8,487.5 C434.5,486.8 442.4,485.7 445.3,485.1 C455.5,483 514.7,476.1 531,475 C540.1,474.4 552.6,473.3 558.8,472.4 C569.4,470.9 570.2,470.9 572,472.5 C574.4,474.7 575.7,478.8 576.5,487 C577.4,495.3 579.9,505.4 586.2,526 C592.9,547.6 597.1,558.6 602,567 C604.2,570.8 607.6,577.9 609.4,582.8 C611.3,587.7 616.7,598.6 621.5,607 C626.3,615.4 631.8,626 633.8,630.6 C636.5,636.5 639.6,641.4 645.1,647.7 C649.2,652.5 658.1,663.7 664.7,672.5 C671.3,681.3 680.7,692.9 685.6,698.4 C690.5,703.8 695.2,709.2 696,710.3 C699.8,715.5 718,730.4 725,734 C729.1,736.1 734,739.1 735.8,740.7 L739,743.5 L737.5,747.8 C732.1,763.2 733.3,795.4 739.9,812.1 C746.3,828.5 750.3,835.1 758.1,842.1 C774.7,856.8 784.2,862.6 804.2,869.8 C827.3,878.3 849.4,880.8 871,877.5 Z M950.2,717.4 C942.5,709.5 926.7,699.9 911.8,694.1 C907.5,692.5 908.3,689.4 914.8,682.3 C923.6,672.6 949.6,650.5 958.5,645 C969.6,638.1 978,628.2 980.9,618.4 C983.2,610.7 983.8,597.3 982,593.9 C980.8,591.7 977.5,591.4 976.7,593.4 C976.4,594.2 972.8,597.4 968.7,600.4 C962.4,605.2 960.7,606 957,606 C949.2,606 945.9,600.5 941.9,581.1 C939.1,567.8 943.3,561.7 966.4,545.8 C990.4,529.3 997.1,523.6 1003.8,514.5 C1010.8,505 1022.9,478.6 1024.1,470.1 C1024.6,466.3 1025.6,463.9 1027.5,462.1 C1029.8,459.8 1030.9,459.5 1038.8,459.2 C1043.6,459 1058.3,459.5 1071.5,460.4 C1084.7,461.3 1097.8,461.7 1100.6,461.4 C1104.9,460.8 1106,461.1 1108.4,463.2 L1111.2,465.5 L1105,482.3 C1101.6,491.6 1097.2,504.2 1095,510.3 C1090,524.9 1080.4,548.4 1075.2,558.7 C1068.1,572.6 1062.7,581.1 1050.3,597.6 C1032.6,621.2 1014.3,637.9 990.6,652.6 C977.8,660.4 977,661.2 977,665.5 C977,668.5 977.5,669.2 980.8,670.8 C982.8,671.9 986.2,673.3 988.3,674 C993.1,675.5 998,679.6 998,682.1 C998,686.6 968.3,718.6 961.6,721.4 C959.5,722.3 957.2,723 956.6,722.9 C956,722.9 953.1,720.4 950.2,717.4 Z M733.3,707.2 C721.5,695.9 713,684.7 712.3,679.2 C711.6,674.2 714,672.1 722.8,670.5 C732.3,668.7 737.4,666.4 736.6,664.4 C736.3,663.6 736,662.6 736,662.4 C736,662.2 735.5,662 734.9,662 C734.2,662 728.3,658 721.6,653.1 C714.9,648.3 706.2,642.2 702.1,639.7 C698,637.1 687.5,628.4 678.4,619.9 C662.9,605.5 661.5,603.9 651.9,589.2 C646.3,580.7 638.7,567.3 635,559.6 C624.2,537 606.5,487.7 604.4,474.3 C603.4,468 604.9,467.5 628.5,466.1 C639.5,465.4 651.9,464.4 656,463.8 C663.7,462.7 696.4,463.4 706.8,464.9 C711,465.5 712.8,466.4 715.9,469.4 C722.9,476.2 723.6,485.7 718.5,506 C713.7,525.6 712.8,532.7 712.6,554 C712.5,575.4 713.4,582.6 718.9,603.6 C720.8,611.2 728.4,626.4 739,644.5 C745.7,655.8 751.2,662 773.8,683.1 C778.9,687.9 783,692.4 783,693.2 C783,694.6 779,699 777.7,699 C776.5,699 760.9,709 755.7,713.1 C752,716.1 749.9,717 747.2,717 C743.9,716.9 742.3,715.8 733.3,707.2 Z M687.8,682.3 C686.4,680.7 682.5,675.7 679,671 C675.5,666.3 666.3,655.1 658.5,646 C635.9,619.6 633.4,616.2 631.5,609.5 C630.6,606.2 629.2,602 628.4,600.2 C626.8,596.8 627.2,595 629.5,595 C631,595 631,595 645.4,614.5 C651.1,622.2 658.4,631.2 661.7,634.5 C668.3,641.3 688.2,656.6 694.6,659.8 C700.2,662.6 701.4,664.3 700.6,668.2 C700.2,670 699.6,673.5 699.3,676 C698.7,681.1 695.8,685 692.5,685 C691.3,685 689.2,683.8 687.8,682.3 Z M1012.2,680.4 C1011,679.6 1008.1,676.4 1005.9,673.3 C1001.1,666.8 1001.3,666.3 1010.2,663.6 C1013.5,662.6 1018.6,659.8 1022.2,657.1 C1025.7,654.5 1029.9,651.6 1031.5,650.8 C1033.2,649.9 1035.4,648.3 1036.4,647.1 C1039.5,643.7 1044.7,645.2 1043.1,649 C1041.5,652.9 1029.6,669.2 1024.4,674.7 C1017.8,681.6 1015.5,682.7 1012.2,680.4 Z M899.3,660.8 C897.7,659 894.9,655.5 893.3,653 C890.1,648.2 883,630.3 883,627 C883,625.9 884.5,624.3 886.8,623 C890.1,621.1 891,619.8 893.5,613.1 C897.1,603.2 905,592 908.5,592 C909.8,592 914.6,593.3 919.2,595 C926.5,597.7 928.2,598.9 935.9,606.4 C947.3,617.5 949.3,618.4 957,616.8 C962.9,615.6 963.1,615.6 965.6,618.2 C967.5,620 968,621.4 967.6,622.8 C966.8,625.1 948,639.1 944.1,640.2 C942.8,640.6 940.9,640.5 939.9,639.9 C937.1,638.4 931.9,630.3 931.5,626.7 C931.2,624.6 929.8,622.3 927.4,620.1 C924,617 923.5,616.8 918.7,617.4 C907.4,618.9 899.4,624.9 903.4,628.8 C904.6,630.1 905.7,630.1 912,628.6 C920.9,626.6 923.4,626.6 924.9,628.4 C925.9,629.5 925.8,630.5 924.6,632.9 C922.6,636.6 920.2,638 915.8,638 C913.9,638 911.9,638.5 911.2,639.2 C909.5,640.9 909.7,646.3 911.6,650.4 C913.6,654.5 912.9,658.2 909.5,661.6 C906.2,664.9 903,664.6 899.3,660.8 Z M857.8,658.1 C857.1,657.1 854.2,655.1 851.3,653.7 C845.4,650.7 843.2,647.8 840.2,639.5 C833.9,621.8 833.3,610.1 838.1,594.7 C839.9,588.8 842.1,583.8 843.5,582.4 C844.9,581 850.6,578.6 858.4,576.1 C866.9,573.5 871.7,571.4 872.8,569.9 C875.3,566.9 883.9,566 886,568.5 C887.3,570.1 887.1,570.6 883.9,573.4 C872.6,583.3 863,606.2 863,623.1 C863,629.3 862.6,632.2 861.4,633.9 C859.8,636.1 859.9,636.3 863.9,640.4 C867.5,644.1 868,645.1 868,649.2 C868,657 861.2,663 857.8,658.1 Z M813,639.1 C807.7,638 805.4,636.4 802,631.6 C799.3,627.5 799,626.4 799,619 C799,614.2 799.8,607.7 800.9,603.2 C802,598.9 803.4,592.4 804.1,588.6 C805.7,579.1 809.2,570.8 812.3,569 C814.6,567.7 815.2,567.8 818.8,569.8 C822.9,572.1 826,571.9 826,569.3 C826,567.2 836.6,557 838.8,557 C839.9,557 841.3,557.7 842,558.5 C843.1,559.8 843,560.6 841.3,562.8 C840.2,564.3 837.5,568.9 835.3,573 C831.8,579.4 830.8,582.7 828.5,595.5 C825.9,610.4 825.4,624.9 827.4,630.6 C828,632.2 827.4,633.6 825,636.4 C821.7,640.2 820.1,640.5 813,639.1 Z M779.9,591.9 C776.4,588.6 772,584.7 770.3,583.3 C767.7,581.3 767,580 767,577.4 C767,574.5 767.9,573.3 774,568.1 C777.9,564.7 783.3,560.9 786.1,559.5 C791.2,556.9 792.6,554.8 793.7,548.2 C794,546.3 794.9,544.6 795.7,544.3 C797.3,543.7 801,546.7 801,548.7 C801,549.4 802.1,550.5 803.5,551 C804.9,551.5 806.3,552.6 806.6,553.4 C806.9,554.2 805.1,560 802.5,566.2 C800,572.4 796.6,581 795,585.3 C791.7,594.3 789.5,598 787.6,598 C786.9,598 783.4,595.3 779.9,591.9 Z M751.5,563.4 C748.5,560.2 748.3,554.7 750.8,548 C753.2,541.9 755.9,541.5 761.1,546.6 C763.3,548.7 765,551.2 765,552.2 C765,555 762.2,561.2 759.8,563.7 C757,566.7 754.5,566.6 751.5,563.4 Z M1648.2,561.5 C1645.5,558.1 1645.5,557.3 1647.9,553.4 C1648.9,551.7 1650.3,547 1651,542.9 C1652.7,532.5 1654,530.1 1660.3,525.1 C1663.4,522.6 1667.7,518 1669.9,514.9 C1674.5,508.4 1674.9,505.5 1672.5,497.6 C1670,489.4 1670.4,487.4 1676.4,480.1 C1680.8,474.7 1682,472.2 1683.5,466.2 C1685,459.7 1685.1,457.9 1684,451.5 C1682.5,442.6 1683,440.4 1688.2,432.7 L1692.2,426.8 L1691.5,418.6 C1690.9,411.5 1690.3,409.7 1686.6,403.5 C1681.2,394.6 1680.2,388.6 1683,383 C1684.5,380 1685,377.1 1685,370.5 L1685,362 L1679,354.8 L1673,347.6 L1673.6,339 L1674.3,330.4 L1669.6,323.4 C1666.2,318.3 1663.4,315.5 1658.9,312.6 L1652.8,308.6 L1653.3,303.4 C1654,296.8 1652.1,294.4 1649.5,298.4 C1648.6,299.8 1645.1,303 1641.7,305.5 C1636.8,309.2 1634.8,310 1631.4,310 C1626.6,310 1616,305.7 1616,303.7 C1616,302 1618,300 1619.7,300 C1620.4,300 1623.1,298.7 1625.7,297 C1628.3,295.4 1631.1,294 1632,294 C1634.4,294 1637,297.2 1637,300 C1637,301.9 1637.3,302.1 1638.2,301.2 C1639.2,300.2 1639,299.2 1637.5,296.4 C1635.8,293.2 1635.8,292.8 1637.3,291.3 C1638.2,290.3 1641,289.3 1643.5,289 C1646,288.7 1648.2,288.1 1648.3,287.5 C1648.5,286.4 1642.1,281.7 1636,278.7 L1631.5,276.5 L1631.4,269 C1631.4,262.6 1631,260.9 1628.7,257.6 C1627.2,255.5 1625.8,252.3 1625.4,250.4 C1624.7,246.4 1623.3,245.5 1616.5,244.5 C1610.4,243.6 1606.2,240.5 1592.8,226.7 C1583.1,216.9 1583,216.8 1575.3,214.8 C1565.4,212.3 1554.4,206.3 1545.8,198.7 C1540.1,193.6 1538.1,192.6 1531.7,190.9 C1526.1,189.5 1523.5,189.3 1520.9,190 C1515.1,191.7 1512.3,191.2 1509.8,188.1 C1508.5,186.5 1504.1,183.1 1499.9,180.6 C1492.5,176 1492.1,175.9 1483.4,175.7 C1478.5,175.6 1472.5,175.9 1470,176.3 C1465.6,177.1 1465.2,176.9 1455.5,170.8 L1445.5,164.5 L1428.5,164.4 C1419.2,164.4 1410,164 1408.3,163.6 C1405.2,162.8 1405,162.9 1405,165.6 C1405,172.2 1391.9,191.9 1377,207.5 C1371.8,213 1360.8,225 1352.6,234.2 C1338.1,250.4 1335.1,253 1330.7,253 L1328.6,253 L1330.8,254.6 C1333.4,256.4 1333.7,259.2 1331.4,261.1 C1330.5,261.8 1328.3,264.6 1326.6,267.2 C1322,273.9 1297.6,300.3 1285.7,311.2 L1275.8,320.4 L1271.4,318.7 L1267,317.1 L1263.1,322.4 C1258.5,328.6 1253.1,331.7 1250,330 C1247,328.4 1247.8,326.1 1252.5,322.5 C1256.3,319.6 1256.5,319.3 1255.6,315.9 C1254.8,312.7 1255.2,311.6 1258.7,305.4 C1261,301.6 1264.8,294.4 1267.4,289.3 C1269.9,284.3 1272.6,279.8 1273.3,279.3 C1274.1,278.9 1275.7,276.9 1277.1,274.9 C1285.2,263 1288.2,260.2 1297.3,255.9 C1305.7,252.1 1306.9,251.8 1315.6,251.6 C1320.7,251.6 1324.8,251.4 1324.7,251.4 C1324.6,251.3 1320.9,250.2 1316.5,249 C1308.4,246.8 1306,245.1 1306,241.7 C1306,240.7 1311.1,234.4 1317.3,227.7 C1329.8,214.1 1336.7,205.6 1344.1,194.8 C1346.8,190.8 1351.5,184.6 1354.6,181 C1365.2,168.7 1368.5,164.8 1369,164 C1369.7,162.8 1384.7,157 1387,157 C1388,157 1389.2,156.5 1389.5,155.9 C1390.5,154.4 1376.6,155.8 1371.2,157.7 C1368.4,158.7 1365.5,159.1 1362.5,158.7 L1357.9,158 L1358.6,164.5 C1359.3,170.8 1359.2,171 1355.4,176.2 C1353.3,179.1 1347.7,185.8 1342.9,191 C1338.2,196.2 1332.4,203.4 1330,207 C1327.6,210.6 1319.8,220.7 1312.8,229.5 C1300.7,244.4 1299.4,245.7 1292.2,249.7 C1288,252.1 1283.7,254 1282.8,254 C1281.6,254 1280.8,255.7 1279.7,260.3 C1278.2,267 1270.7,279.7 1262.8,288.8 C1260.4,291.6 1256.7,296.8 1254.5,300.5 C1249.6,308.7 1243.2,313.7 1239.9,312 C1238.8,311.3 1237.7,311 1237.6,311.2 C1235.4,315.2 1229.1,323.5 1227.6,324.5 C1226.4,325.2 1223.6,326.1 1221.3,326.5 C1217.7,327.1 1217,326.9 1215.7,324.8 C1214.8,323.5 1213.6,320.6 1213,318.4 C1211.8,314.5 1211.9,314 1214.7,309.9 C1216.4,307.5 1218.9,302.1 1220.5,298 C1227.8,278.4 1238.9,260.1 1248.9,251.2 L1255.9,244.9 L1264.1,244.3 C1269.6,243.9 1271.7,243.4 1270.6,242.8 C1269.6,242.2 1269,240.6 1269,238.5 C1269,235.8 1269.7,234.6 1272,232.8 C1273.7,231.6 1279.6,223.6 1285.2,215 C1290.8,206.5 1300.9,191.6 1307.8,182 C1319.5,165.5 1320.7,164.2 1327.4,160.2 C1343.2,150.5 1341.8,151.6 1339,151.3 C1337.6,151.1 1333.2,151.5 1329.1,152.2 C1321.9,153.5 1321.7,153.6 1319.4,157.9 C1312,171 1265,237.4 1261.8,239.1 C1260.9,239.6 1259.1,240 1257.8,240 C1256.5,240.1 1251.3,241.7 1246.2,243.8 L1236.8,247.5 L1234.6,254.5 C1231.8,263.1 1226.3,274.1 1217.4,288.5 C1213.7,294.6 1209.2,302.2 1207.3,305.5 C1205.4,308.8 1203.3,312.1 1202.5,312.9 C1200.9,314.5 1199,313.6 1199,311.1 C1199,306.9 1195.8,304.9 1188.9,304.6 C1185.2,304.4 1181.8,304 1181.1,303.6 C1178.1,301.7 1181.3,290.1 1191.2,267.5 C1194.4,260.2 1204.6,246.2 1210,241.6 C1213.6,238.6 1216.5,238.4 1226.4,240.5 C1234.5,242.2 1237,241.4 1237,237 C1237,229.6 1239.5,223.4 1246.7,212.5 C1253.8,202.1 1255.2,198.2 1252.3,197.2 C1251.6,197 1251,197.3 1251,197.8 C1251,199.1 1241,216.6 1236.2,223.8 C1232.7,228.9 1231.5,229.9 1227.6,230.9 C1220.8,232.6 1219.8,232.3 1216.5,228.3 C1211.4,222 1206,213.6 1206,211.8 C1206,207.7 1213,192.6 1219.2,183.1 C1223,177.4 1225.9,172 1225.8,171.1 C1224.9,166.3 1221.8,171 1209,196.7 C1201.6,211.7 1194.4,225.1 1193.1,226.5 C1190,229.7 1187,229.7 1184,226.5 C1181.3,223.7 1179.6,223.5 1172.5,225.3 C1168.2,226.5 1167.4,227 1166.6,229.9 C1165.4,234.2 1162.5,235.5 1156.3,234.4 C1151.1,233.4 1149.7,231.2 1152.2,228.2 C1153,227.3 1155.4,222.5 1157.5,217.5 C1159.6,212.6 1164.1,202.8 1167.5,195.9 C1171,188.9 1174.1,182.4 1174.4,181.3 C1175.3,178.6 1185.1,160.7 1190,153 C1192.6,148.9 1195.9,145.3 1198.8,143.4 C1205.5,138.9 1206.8,138.3 1213.3,137.1 C1218.1,136.2 1219.7,136.3 1222,137.5 C1228.2,140.7 1233.6,151.1 1231.2,155.1 C1229.6,157.7 1229.7,161 1231.4,161 C1232.2,161 1233.7,159.5 1234.8,157.7 C1239.7,149.3 1257.6,139.4 1265.7,140.4 C1271.2,141.1 1271.9,139.7 1267.1,137.5 C1263.4,135.9 1262.9,135.9 1257.4,137.5 C1254.2,138.4 1249.9,140 1247.8,141.1 C1242.5,143.8 1240.7,143.5 1233.2,139 C1228,135.9 1224.8,134.8 1219,134 C1211.9,133 1211,133.1 1202.2,136 C1197.1,137.6 1192.2,139 1191.4,139 C1190.6,139 1187.4,137.7 1184.2,136.1 C1180.2,134.1 1176.2,133 1171,132.5 L1163.5,131.8 L1153,137 C1141.1,142.8 1139.6,142.8 1134,137.6 C1128.6,132.5 1127.4,132.1 1118,132.7 C1106.7,133.4 1106.3,133 1105.8,119.5 L1105.5,109.6 L1108.7,107.4 C1114.2,103.7 1125.1,102.7 1143.9,104 C1153,104.6 1163.6,104.8 1167.5,104.5 C1172.4,104 1177.3,104.3 1183.5,105.5 C1188.3,106.4 1201.8,107.5 1213.4,108 C1225,108.5 1235.2,109.1 1236,109.4 C1236.8,109.7 1245.4,110.4 1255,111 C1264.6,111.6 1286.7,113.8 1304,116 C1321.3,118.1 1339.1,120.1 1343.5,120.5 C1347.9,120.8 1355.1,121.7 1359.5,122.5 C1363.9,123.3 1378.5,125.3 1392,127 C1405.5,128.7 1420,131 1424.3,132.1 C1428.6,133.2 1439.1,135.4 1447.6,137 C1456.1,138.6 1466.8,141 1471.3,142.4 C1475.8,143.8 1486.8,146.7 1495.7,148.9 C1504.6,151.2 1515.3,154.5 1519.4,156.4 C1523.6,158.3 1530.7,161 1535.2,162.4 C1539.9,163.8 1546.8,167 1551,169.6 C1555.1,172.2 1562.6,176 1567.6,178 C1590.2,187.1 1621.9,213 1639.7,237 C1643.6,242.2 1649.4,249 1652.5,252 C1655.7,255 1660.7,261.3 1663.8,266 C1666.8,270.7 1672.3,278.3 1676,283 C1681.9,290.4 1684.1,294.5 1693,315 C1704.4,340.9 1705.3,344 1710.7,371.5 C1714.3,390.5 1714.3,390.5 1714.4,418 C1714.4,435 1713.9,449.1 1713.1,455 C1711.4,467.9 1706.3,495.7 1703.9,505.5 C1700.3,520 1685.8,544 1673.2,556.3 L1666.3,563.2 L1658.3,563.7 C1650.5,564.2 1650.3,564.2 1648.2,561.5 Z M41.5,550.6 C36.1,544.8 30.4,531.8 26.6,516.5 C24.7,508.8 21.8,497.8 20.2,492 C18.5,486.2 16.4,475.4 15.5,468 C14.6,460.6 13.2,450.7 12.3,446 C11,439.3 10.7,430.4 10.6,405 C10.6,369 10.6,369 19,343 C20.7,337.8 23.2,329.9 24.5,325.4 C27.1,316.7 40.8,289.1 49.8,274.5 C52.9,269.6 59.9,259.1 65.4,251.2 C71,243.4 76,236 76.6,234.9 C78.2,232 91.9,216.2 101,206.7 C113.3,193.8 122.2,187.9 139.7,180.9 C144,179.2 150,176.3 153,174.5 C164.2,167.7 191.9,156.5 207,152.6 C215,150.6 224.9,148 229,147 C247.9,142 263.1,138.8 272.9,137.9 C278.7,137.3 288.7,136 295,134.9 C301.3,133.8 310.1,132.5 314.5,132 C318.9,131.4 326,130.3 330.3,129.5 C334.7,128.7 341.9,128 346.4,128 C350.8,128 358.6,127.3 363.5,126.4 C368.5,125.6 380.4,124.5 390,124 C447.3,120.9 460.5,120 469.5,118.7 C475,117.9 483.6,116.9 488.5,116.5 C493.5,116.2 500.9,115.5 505,115 C509.1,114.5 519.9,113.6 529,113 C538.1,112.4 550.9,111.2 557.5,110.4 C565.1,109.4 579,108.7 595.5,108.6 C615.2,108.4 623.4,107.9 629.5,106.7 C640.7,104.3 648,104.5 651.4,107.1 C652.8,108.2 653.7,109.6 653.4,110.2 C652.4,111.9 650.1,123.1 650,126.6 C650,128.6 649,130.6 647,132.5 C644.4,135 643.6,135.2 639.6,134.7 C635.7,134.1 633.8,134.6 627.3,137.6 L619.5,141.1 L610.9,139 C601.9,136.7 592.5,136.8 585.5,139.2 C583,140 581.5,139.8 576.6,137.6 C573.4,136.2 569.8,135 568.6,135 C565.2,135 554.4,138.6 551.3,140.7 C547,143.7 544.3,144 536.8,142.5 C533,141.7 527.7,141 525,141 C520.4,141 519.6,141.4 514.8,146 C511.9,148.8 508.7,151 507.7,151 C506.6,151 503.2,149.4 500.1,147.5 C490.1,141.3 485.9,141.8 475.9,150.2 C470.9,154.4 467.2,155 462.3,152.6 C454,148.5 449.8,148.5 438.2,153 C431.5,155.6 428,155.5 422.7,152.8 C418.7,150.8 417.9,150.8 408.1,151.8 C399.4,152.7 397,153.3 392.8,155.9 C387,159.5 386,159.6 380.6,157 C373.9,153.8 367.9,152.6 364.8,153.9 C361.1,155.3 361.3,156.7 365.3,157.6 C367,157.9 372.1,159.9 376.5,162 L384.6,165.7 L394.6,181.1 C400.1,189.6 407.1,200.8 410,206 C413,211.2 416.9,217.7 418.7,220.4 C420.5,223 422,226.5 422,228 C422,230.7 419.4,234 417.3,234 C416.7,234 412.9,235.6 408.9,237.5 C404.8,239.4 401,241 400.2,241 C398.5,241 393,236.9 393,235.6 C393,235.1 390.3,230.7 387,225.8 C383.7,221 381,216.7 381,216.4 C381,216 379.1,213.2 376.8,210.1 C363.9,193.2 355.7,179.5 354,172.3 C353,168 353.1,166.7 354.4,164.1 C355.3,162.5 356,160.9 356,160.7 C356,160.5 352.9,160 349.1,159.6 C345.2,159.3 340.9,158.5 339.3,157.9 C337.5,157.2 333.2,157.1 327.5,157.5 C314.3,158.5 309.2,159.7 305.8,162.5 C301.6,166 299.2,166.4 292.1,164.5 C283.8,162.4 272.9,163.3 263.5,167 C259,168.8 253.5,170 248,170.5 C238.9,171.3 236.8,172.2 226.9,179.5 C221.5,183.6 221.2,183.7 211.7,184.3 C199.5,185 195.3,186.9 188.3,194.8 L183.1,200.7 L172.8,201.4 L162.5,202.1 L155.8,207.2 C149.6,212 149,212.7 147.9,217.7 C146,226 143,228 132.7,228 L124.5,228 L117,234.1 C109.8,240 109.5,240.4 108.4,246.1 C107.8,249.4 106.4,253 105.4,254.2 C104.3,255.3 99.5,258.2 94.5,260.5 C85.8,264.6 85.4,265 81.7,271.3 C78.1,277.6 77.9,278 78.6,284.4 C79.3,291 79.3,291 75.8,294.3 C73.9,296 69.6,298.8 66.3,300.4 C57.9,304.4 56.6,307.1 56.3,321.5 C56.2,327.6 56.1,332.8 56.1,333.2 C56,333.6 53.5,335.8 50.5,338 L45,342.1 L45,353.5 C45,359.7 45.5,366.1 46,367.5 C46.9,369.8 46.6,370.8 43.6,374.9 C40.9,378.6 39.9,381.1 39,387.5 C37.8,394.9 37.9,396.1 40,403 C41.2,407.1 43.1,411.8 44.2,413.3 L46.2,416.1 L43.1,421.9 C40.2,427.3 40,428.5 40,437.7 L40,447.6 L43.9,451.4 L47.8,455.2 L47.3,463.4 C46.8,470.2 46.2,472.2 43.8,475.8 C38.9,482.9 40.7,487.6 53.8,502.7 C57.2,506.7 60,510.6 60,511.3 C60,512 59.3,513.5 58.5,514.6 C56,517.9 56.5,534.2 59.4,543.1 C62.6,552.8 61.8,554 51.7,554 C45.1,554 44.6,553.8 41.5,550.6 Z M1101,526.5 C1100.1,525.4 1100.6,522.7 1103.6,513.3 C1109.5,494.8 1114.9,481.1 1117.7,477.4 C1121.8,471.9 1125.1,473.3 1123.2,479.9 C1122.6,481.9 1121.4,487.2 1120.6,491.7 C1118.5,503.4 1106.5,528 1102.9,528 C1102.6,528 1101.7,527.3 1101,526.5 Z M821,520.1 C813,519.5 808.6,517.4 807.7,513.9 C807.2,512.2 806.6,512 801.7,512.6 C796.7,513.2 796.1,513 795,511 C793.1,507.4 794.4,506 799.8,506 C804,506 804.8,506.3 806.3,509 C808.1,511.9 808.2,512 811.1,510.5 C812.7,509.6 814,508.6 814,508.2 C814,506.9 811.7,505 810,505 C809.2,505 806.2,503.2 803.5,500.9 C797.2,495.7 795.8,495 793,495.7 C790.8,496.3 790.7,496.2 791.4,491.2 C792,486.4 791.9,485.9 787.5,479.7 C784.5,475.4 783,472.2 783,470.1 C783,467.4 782.3,466.6 778.3,464.2 C772,460.6 766,454.5 766,451.6 C766,450.4 767.1,448.3 768.4,447 C771.7,444 772.7,439.3 770.5,437.1 C769,435.6 768.7,435.7 766.9,438.3 C764,442.1 761.7,441.8 759.9,437.3 C756.6,428.8 755.7,427.6 750.8,426 C748.2,425.2 745.6,424 744.9,423.3 C743.1,421.5 744.8,416.6 748.5,413 C752.6,409.1 752.7,408 750,399.9 C748.8,396.6 748.2,393 748.5,392.1 C748.8,391.1 750.8,389.3 753.1,388.1 C755.3,386.8 757.4,385.2 757.6,384.5 C757.9,383.8 757,381.3 755.5,379.1 L752.9,374.9 L749.2,378 C747,379.8 744.4,381 742.7,381 L739.9,381 L740.5,375.3 C741.4,368.1 744.1,363.3 747.8,362.6 C750.8,362 809.7,359.5 820.5,359.6 C824.4,359.6 835.6,359.9 845.5,360.3 C855.4,360.7 875.2,361.2 889.5,361.4 C917.1,361.9 937.9,363.4 944.5,365.3 L948.5,366.4 L942.7,367 C933.1,367.9 931.8,371.7 937.5,382.4 C940.4,388 941,390 941,395.3 C941,404.3 940.4,405.8 936.6,406.2 C933.6,406.5 933.5,406.7 933.2,411.8 C933,414.9 933.7,419.9 934.9,424 C936.9,431.3 936.8,438 934.5,438 C933.8,438 932.7,436.7 932,435 C931.3,433.4 930.2,431.6 929.4,430.9 C928.3,430 927.8,430.4 926.9,432.6 C926.3,434.2 924.2,437.7 922.1,440.5 C920,443.2 917.1,448.6 915.6,452.4 C914.1,456.1 911.5,461 909.8,463.1 C906.8,466.8 906.4,467 901,467 C894.6,467 892,468.8 892,473.2 C892,476.1 890.4,477 885.1,477 C881.4,477 878,479.3 878,481.8 C878,482.4 879.4,483.7 881.1,484.6 C885.3,486.7 883.8,488 875.3,489.5 C865.5,491.3 835.8,500 834,501.7 C832.9,502.7 832.8,503.4 833.6,504.8 C834.2,505.8 835.1,508.1 835.5,510 C835.9,511.9 836.9,514.2 837.7,515.1 C838.9,516.6 838.8,517 836.4,518.9 C834.9,520 832.6,520.9 831.1,520.8 C829.7,520.7 825.1,520.4 821,520.1 Z M1548.4,518.7 C1547.6,516.5 1549.1,514.7 1551.3,515.2 C1552.7,515.5 1552.7,515.8 1551,518 C1549.3,520.3 1549.1,520.3 1548.4,518.7 Z M1565.9,516.3 C1564.6,514.7 1564.7,514.6 1566.3,515.9 C1567.2,516.6 1568,517.4 1568,517.6 C1568,518.4 1567.2,517.9 1565.9,516.3 Z M156.2,512.8 C154.6,511.2 154.7,507.8 156.3,505.7 C159.5,501.3 184.3,498.1 188.1,501.6 C189.8,503.1 189.8,503.4 188.3,505.7 C186.1,509 181.9,511 177.2,511 C175,511 171.3,511.7 169,512.5 C163.9,514.3 157.8,514.4 156.2,512.8 Z M216.3,499.1 C208,498.4 206.5,497.5 207.9,493.7 C209.6,489.4 213.2,487.9 230.8,484.4 C251.3,480.3 254,480.2 257.7,483.5 L260.5,486 L255.5,490.5 C249.5,495.9 246.7,496.1 246.2,491.2 C246,489.4 245.2,487.6 244.4,487.3 C242.1,486.4 241.7,487.6 243.4,490.8 C245.1,494.2 244.4,495.4 239.9,496.5 C237.8,497 236.5,496.5 233.7,494.1 C229.5,490.4 224,489.7 224,493 C224,494.1 224.6,495 225.4,495 C226.1,495 227.2,495.6 227.9,496.3 C229.2,497.9 227.5,500.1 225.1,499.8 C224.2,499.7 220.3,499.4 216.3,499.1 Z M1525.8,498.3 C1522.3,497.8 1520.8,495.8 1521.2,492.3 C1521.6,489 1523.5,487.9 1534.5,484.7 L1542.5,482.3 L1538.7,480.7 C1535.3,479.2 1534.9,478.7 1535.2,475.9 C1535.7,471.1 1537.8,470.3 1544.3,472.3 C1547.3,473.2 1550.5,474.9 1551.5,476 C1553.2,477.9 1553.2,478.1 1551.5,482 C1549.3,486.8 1545.3,490.5 1537.9,494.7 C1531.7,498.2 1529.6,498.8 1525.8,498.3 Z M1434,493 C1425.3,492.1 1409.2,487.6 1407,485.4 C1405.9,484.3 1405.8,483.6 1406.6,482.2 C1408.5,479.3 1430.2,480.6 1454.7,485.2 C1461.4,486.4 1465,489.1 1463.4,491.7 C1462.4,493.2 1460.8,493.5 1451.9,493.6 C1446.2,493.7 1438.1,493.4 1434,493 Z M1484.3,484.9 C1475.3,482.8 1476.6,478.8 1486.6,477.5 C1490.8,477 1492.7,477.2 1494.6,478.4 C1497.7,480.5 1497.6,481.4 1494.4,483.9 C1491.5,486.2 1490.6,486.3 1484.3,484.9 Z M198,481.2 C195.4,480.4 194.3,477.7 194.1,471.8 C194,469.7 193.5,466.1 192.8,463.7 C191.2,457.5 192.3,454.5 197.7,450.6 C206.3,444.4 209.1,443.9 245,443 C272,442.3 277.7,442.4 278.9,443.5 C280.1,444.7 280.1,445.2 279,446.4 C278.3,447.3 277.3,448 276.7,448 C276.1,448 273.7,449.9 271.3,452.2 L267.1,456.4 L270.3,458.6 C272.1,459.8 275.3,461.5 277.3,462.4 C284.4,465.3 280.8,468 269.8,468 C265.4,468 261.9,467.5 261.2,466.8 C259.7,465.3 259.6,459.8 261.1,458.3 C261.9,457.5 261.4,456.7 259,455.5 C256.3,454.1 255.3,454 252.9,455.1 C248.6,456.8 248.5,457.6 251.9,461.7 C255.7,466.3 255.8,467.9 252.3,471.2 C250.1,473.2 247.1,474.3 239,476 C233.2,477.1 225.6,478.7 222,479.5 C213.9,481.3 201.3,482.1 198,481.2 Z M176.5,474.1 C175.9,473.6 173.1,472.2 170.3,471.1 C165.1,469.1 165,469.1 160.4,471 C154.2,473.7 152,473.5 147.4,470 C145.3,468.4 142.5,467 141.4,467 C140.2,467 138.7,466.3 137.9,465.4 C136.2,463.4 137.6,461.2 142.1,458.5 C145.2,456.7 147.3,456.5 165.6,456.5 C186.6,456.5 190,457.1 188.4,460.9 C188.1,461.8 187.3,464.3 186.8,466.5 C185.3,473.1 179.6,477.2 176.5,474.1 Z M1470,467 C1469.4,465.9 1468.3,465 1467.6,465 C1465.4,465 1461,461 1461,459 C1461,458 1461.9,456.5 1463,455.7 C1465,454.3 1464.9,454.2 1461,453.6 C1458.1,453.2 1456.6,452.3 1455.9,450.7 C1455.4,449.5 1453.5,447.7 1451.9,446.7 C1446.4,443.6 1448.7,442.5 1460.1,442.7 C1472.1,443 1475.2,444.4 1476,450.1 C1476.5,453.4 1476.6,453.5 1481.6,453.8 C1491.9,454.4 1491.9,459.9 1481.6,465.7 C1474.9,469.5 1471.5,469.9 1470,467 Z M1521.2,467.8 C1520.5,467.1 1520,466.1 1520,465.4 C1520,463.6 1515.8,461.2 1510.3,459.9 C1502,457.9 1501.3,456.4 1506.3,450.8 C1509.4,447.2 1509.7,447.1 1513.8,447.9 C1520.8,449.3 1526,455.9 1526,463.4 C1526,466.3 1524.5,469 1523,469 C1522.7,469 1521.9,468.5 1521.2,467.8 Z M494,466.8 C489.6,464.4 481.4,451.3 478.9,442.7 L476.7,434.9 L478.9,427.2 C480.2,423 483.4,415.6 486.1,410.9 C489.4,405.1 491,401.1 491,398.8 C491,395 492.3,393.5 497.5,391 C499.3,390.2 503,386.8 505.8,383.4 C510.2,378.1 511.4,377.2 515.2,376.7 C523.2,375.5 526.5,374 533.9,368.1 L541.3,362.2 L549.9,361.6 C565.8,360.3 574.1,358.9 581.5,356.1 C586.1,354.3 591.7,353 597.1,352.6 C601.7,352.2 609.1,350.8 613.5,349.5 C617.9,348.2 625.3,346.9 630,346.5 C634.7,346.2 642.1,345.4 646.5,344.9 C653,344.1 657.5,344.3 671,346 L687.5,348 L692.3,352.9 C696.6,357.5 697,358.3 697,362.8 C697,366.3 696.4,368.5 694.9,370.4 C692.4,373.5 691.2,374.1 677.5,378.2 C648.3,387 599,417.2 584,435.4 L578.5,442.1 L578,450.7 C577.5,458.9 577.3,459.3 573.9,462.5 C568.4,467.5 560.3,468 536,464.9 C530.3,464.2 526.7,464.3 521,465.4 C509,467.7 496.9,468.3 494,466.8 Z M1535.2,462.7 C1532.4,459.7 1531.2,452.7 1533,450.5 C1533.7,449.7 1535.3,449 1536.6,449 C1537.9,449 1544.1,447 1550.3,444.5 C1562.6,439.7 1569.7,438.7 1572,441.5 C1573,442.7 1573,443.4 1572.2,444.2 C1571.5,444.9 1571,448 1571,451.2 C1571,456.4 1570.6,457.4 1567.7,460.7 L1564.3,464.3 L1550.9,464.8 C1537.6,465.2 1537.5,465.2 1535.2,462.7 Z M1658.2,461.9 C1656.3,461.3 1654.6,460 1654.1,458.7 C1653.6,457.5 1651.5,455.6 1649.4,454.5 C1645.3,452.4 1644.4,450.3 1647,448.9 C1650.6,447 1666.1,443 1669.8,443 C1673.1,443 1674.3,443.6 1676.4,446.1 C1680.4,450.8 1679.8,452.4 1672.3,457.9 C1665.3,463.1 1663.8,463.5 1658.2,461.9 Z M616.8,461 C612,458 617.2,454.8 638.5,447.9 C650.7,443.9 672.6,432.8 684,424.9 C687.1,422.7 690.1,421 690.6,421 C692.6,421 695.9,425.6 698,431.5 C705.4,451.6 705.5,451.9 703.7,453.7 C702.4,455.1 697.9,455.8 683.2,457.2 C672.9,458.1 661.6,459.4 658,460 C648,461.6 618.8,462.3 616.8,461 Z M585,454 C581.7,450.7 582.5,447.2 587.3,442.6 C592.5,437.6 608,426.7 617.4,421.5 C621.2,419.4 630.9,413.4 638.9,408.1 C656.1,396.8 672.4,388.1 676.2,388 C677.7,388 680.1,389 681.6,390.3 C684.1,392.5 684.2,392.7 682.7,395.6 C680.2,400.5 676.8,402.8 669.7,404.6 C661.3,406.7 650.7,414.4 641.7,425 C635.9,431.9 635.1,432.5 618.6,440.7 C609.2,445.4 599.7,450.8 597.4,452.6 C592.6,456.6 588.1,457.1 585,454 Z M164.5,449.3 C161.2,449.1 158.1,448.5 157.6,448 C156.3,446.7 159.8,443 162.2,443 C163.9,443 163.9,442.8 162.5,440.1 C161.6,438.2 159.9,436.9 158.1,436.5 C153.5,435.5 150,432.3 150,429.1 C150,424.8 152,423.3 159.7,421.6 C170.6,419.2 182.1,420.8 185.9,425.3 C187.9,427.8 182.9,432.7 177.5,433.6 C173.4,434.2 173,434.5 173,437 C173,440.2 170.3,442.9 166.9,443.1 C165.6,443.2 167.3,443.6 170.8,444 C174.3,444.4 177.6,445.2 178.2,445.8 C180,447.6 177.2,450 173.6,449.8 C171.9,449.7 167.8,449.5 164.5,449.3 Z M1143,445 C1140.5,440.1 1140.5,438.4 1143.1,429.6 C1144.6,424.6 1146.5,421.1 1149.6,417.5 C1151.9,414.7 1154.4,411.2 1155,409.6 C1155.9,407.1 1155.7,406.5 1152.9,403.9 C1150.1,401.3 1144.6,399 1140.9,399 C1138.6,399 1135.5,395.2 1132.7,389 C1131.3,386 1127.2,379.9 1123.5,375.6 C1117.6,368.6 1116.9,367.3 1117.4,364.6 C1118.6,358.8 1119.2,358.6 1135.1,361 C1154,363.8 1155.8,364.2 1174,370.2 L1189.5,375.2 L1210.2,375.4 C1228.2,375.6 1231.2,375.9 1233.6,377.5 L1236.4,379.3 L1234.1,381.1 C1232.7,382.3 1230.2,383 1227.6,383 C1221.9,383 1219.2,386.1 1214.7,397.9 C1210.3,409.2 1210.8,412.6 1216,406.1 C1218.8,402.6 1219.9,402 1223.1,402 C1229.1,402 1231.2,404.4 1231.5,412 C1231.7,418.4 1231.7,418.6 1227.5,422.8 C1223.4,426.9 1223.1,427 1216.5,427 C1205.8,427 1184.2,432.9 1171,439.5 C1166.3,441.8 1159.8,444.5 1156.5,445.5 C1153.2,446.4 1149.7,447.6 1148.8,448.1 C1145.9,449.6 1145.1,449.2 1143,445 Z M203.5,438.3 C199.7,438.1 196,437.4 195.3,436.9 C194.6,436.3 192.4,432.9 190.4,429.3 C187.3,423.7 186.8,422.1 187.3,418.3 C188.1,411.3 192.3,406.2 201.6,401.3 L209.5,397.1 L227,397.1 C249.2,397.1 272.2,399.7 275,402.6 C276.8,404.4 276.8,404.8 275.5,408.5 C274.7,410.7 274.1,414.1 274,416.1 C274,420.6 272.5,422 267.8,422 C265.1,422 264,422.4 264,423.5 C264,424.4 264.9,425 266.4,425 C267.8,425 270.2,426.1 271.7,427.4 L274.5,429.9 L272.4,432 C270.6,433.8 268.1,434.4 256.9,435.6 C223.1,439.1 222,439.2 203.5,438.3 Z M1497.4,437 C1496.2,436.5 1494.9,435.6 1494.5,435 C1493,432.6 1496.2,431.6 1506.3,431.4 C1511.9,431.3 1518.8,430.9 1521.7,430.5 C1525.9,429.9 1527.5,430.1 1529.7,431.5 L1532.4,433.3 L1529.6,435.6 C1527,437.9 1526.2,438 1513.2,437.9 C1505.7,437.9 1498.5,437.5 1497.4,437 Z M1461.3,435.1 C1453.1,434.4 1450.6,433 1453.3,430.3 C1454.7,428.9 1456.5,428.6 1462.7,428.9 C1471,429.1 1478.7,430.7 1479.6,432.2 C1479.9,432.7 1479.6,433.7 1479,434.5 C1477.7,436.1 1474.5,436.2 1461.3,435.1 Z M1635.5,432.4 C1629.5,430.8 1623.7,430 1618,430 C1603.9,430 1602.2,429.4 1599.7,424.4 L1597.6,420 L1590.2,420 C1583.1,420 1582.4,420.2 1575.6,424.5 C1567.9,429.3 1560.9,430.9 1548.4,431 C1539.1,431 1537.9,429.7 1537.2,418.2 C1536.9,412.2 1536.2,408.6 1535.4,407.9 C1532.9,405.9 1533.8,403 1537.3,401.6 C1542.5,399.4 1572,397 1588.7,397.2 C1603.7,397.5 1604,397.5 1606.6,400.2 C1609.9,403.5 1609.3,405.6 1604.3,407.6 C1599.1,409.6 1597.7,410.5 1597.2,411.8 C1596.9,412.7 1599.4,413 1605.8,413 C1615.3,413 1616.5,412.4 1614.9,408.5 C1613.5,405 1613.9,403 1616.6,400.3 C1619,397.9 1619.5,397.8 1626.3,398.5 C1635.3,399.3 1636.7,400.3 1634,403.7 C1630.8,407.8 1631.4,410 1635.5,410 C1637.7,410 1639,409.5 1639,408.7 C1639,407.9 1640.1,406.3 1641.5,405 C1643.6,403 1644.3,402.8 1646.5,403.8 C1647.9,404.5 1649.5,406.1 1650.2,407.4 C1651.1,409.6 1650.9,410.4 1648.1,413.5 C1646.4,415.5 1645,417.5 1645,417.9 C1645,418.4 1647,420.8 1649.5,423.3 C1652,425.9 1654,428.3 1654,428.9 C1654,430.4 1648,435 1646.2,434.9 C1645.3,434.9 1640.5,433.7 1635.5,432.4 Z M1098.4,424.1 C1089.6,421 1081.8,418.1 1081.1,417.7 C1079.1,416.3 1077.9,412.1 1078.9,410.1 C1079.5,409.1 1082.1,407.8 1085.5,407.1 L1091,405.8 L1103.8,412.5 C1110.8,416.2 1118.4,420.8 1120.8,422.7 C1124.9,426.1 1125,426.3 1123.4,428.1 C1120.8,431 1116.2,430.3 1098.4,424.1 Z M1440.4,424.8 C1438.9,423.2 1438.8,422.6 1440,420.2 C1443.1,414.1 1446.4,412.4 1449,415.5 C1450,416.8 1450.5,416.7 1452.6,415.2 C1453.9,414.3 1455,413.2 1455,412.9 C1455,412.1 1447.8,410.1 1441.5,409.2 C1437.4,408.6 1436.5,408.1 1436.5,406.5 C1436.5,404.7 1437.6,404.4 1450.5,403.3 C1458.2,402.6 1478.7,401.5 1496.1,400.9 C1525.4,399.7 1528,399.8 1530.4,401.3 C1532.7,402.8 1532.9,403.5 1532.4,407.4 C1532,409.8 1532.3,414.1 1533,417 C1534.2,421.9 1534.1,422.3 1531.9,424.6 L1529.5,427.1 L1485.8,426.9 C1444.5,426.7 1442,426.6 1440.4,424.8 Z M159.5,413.8 C157.3,413.3 154,413.2 152.2,413.5 C146.9,414.5 143.7,410.3 148,408 C149.4,407.2 151.9,407.4 157.2,408.5 C161.2,409.3 165.5,410 166.7,410 C169.5,410 170.5,411.7 169,413.5 C167.6,415.2 165.4,415.2 159.5,413.8 Z M166.5,407.1 C156.9,406.6 154.6,406.1 148.7,403.3 C143.3,400.7 140,399.9 132.9,399.4 C123.9,398.7 123.8,398.7 120.8,394.9 C119.1,392.7 116.9,391 116,391 C114.1,391 112,389.1 112,387.3 C112,386.6 113.1,385.4 114.5,384.8 C116.6,383.9 118,384 122.3,385.8 C126.3,387.4 131.3,388.2 144,389 C180.5,391.3 192.6,394.4 190.5,400.9 C189.4,404.3 184.2,408 180.7,407.8 C178.9,407.7 172.6,407.4 166.5,407.1 Z M472.3,405.1 C468.4,404.7 465.4,403.9 464.3,402.8 C461.6,400 464.1,398.6 472.3,398.2 C478.2,398 480.1,398.3 482.9,400 C486.1,402 486.2,402.2 484.5,404.1 C483.5,405.1 481.7,405.9 480.6,405.8 C479.4,405.8 475.7,405.4 472.3,405.1 Z M1445.8,398.3 C1442,397.7 1440.4,395.5 1442.1,393.4 C1443.2,392 1445.4,386.9 1446.3,383.6 C1446.4,383.2 1444.1,381.9 1441.1,380.9 C1434.7,378.7 1433,377.4 1433,374.8 C1433,372.2 1441.2,368.6 1452,366.6 C1460.6,365 1469.9,362.1 1466.8,362 C1465.9,362 1459.9,362.9 1453.3,364 C1446.8,365.2 1436.1,367 1429.5,368 C1422.9,369.1 1415.3,370.4 1412.6,371 C1407.1,372.1 1406.3,371.8 1404.9,368.3 C1404.1,366.1 1395.9,361.5 1387.8,358.7 C1384.4,357.5 1385.9,355 1391.7,352.4 C1397.3,350 1397.6,350 1401.1,351.6 C1406.6,354 1409.9,352.6 1411.9,347 C1413.4,343 1414.1,342.4 1421,339.2 C1438,331.3 1478.9,319.6 1493,318.5 C1510.3,317.2 1517,316 1524.7,312.4 C1532.8,308.8 1536.2,307.7 1556.5,302.4 C1563.6,300.5 1569.8,298.4 1570.2,297.7 C1571.2,296.2 1571.1,290.1 1570,287.5 C1569.4,285.8 1569.1,286.1 1568.5,289.2 C1568.1,291.2 1566.8,293.8 1565.5,295 C1564.1,296.3 1555.9,299.4 1544.4,303 C1534,306.3 1522.7,310.1 1519.3,311.5 C1514,313.6 1511.5,314 1503.8,313.9 C1491.2,313.8 1490,313.3 1487,307.8 C1483.7,301.5 1484.7,298.6 1491.5,295 C1503.8,288.6 1514.6,282.7 1515.5,282 C1516.1,281.6 1522.2,278.9 1529.2,276 C1536.2,273.1 1543.9,269.5 1546.2,268 C1548.6,266.5 1555,263.8 1560.5,262.2 C1566,260.5 1572.2,258.6 1574.2,257.9 L1577.8,256.7 L1584.6,263.5 C1591.3,270.1 1599.1,275 1602.8,275 C1606,275 1607.3,277.4 1605.2,279.3 C1603.7,280.7 1591.5,284.7 1583.3,286.5 C1580.4,287.1 1580,287.5 1580,290.6 C1580,293.7 1580.3,294 1582.9,294 C1584.5,294 1587.8,293.1 1590.4,291.9 C1593,290.8 1596.3,290 1597.8,290.2 L1600.5,290.5 L1600.6,301.5 C1600.7,307.6 1600.8,312.8 1600.9,313.3 C1601.1,314.8 1602.7,313.9 1603.8,311.5 C1605.3,308.2 1608.9,308.2 1612,311.5 C1614.1,313.7 1614.2,314.2 1612.9,315.5 C1612.1,316.3 1608.8,317.7 1605.6,318.5 C1602.4,319.3 1595.1,321.8 1589.2,324 C1583.4,326.2 1575.2,328.6 1571,329.4 C1566.7,330.2 1556.8,332.5 1548.9,334.5 C1531.3,339 1523.9,340.1 1519.9,339 C1517.1,338.2 1516.8,338.3 1515.5,341.5 C1514.7,343.3 1512.9,345.7 1511.6,346.8 C1508,349.6 1493.5,355.6 1486.7,357.1 C1482.5,358 1481.3,358.6 1482.4,359.2 C1483.4,359.8 1486.9,359.2 1492.3,357.5 C1498.4,355.7 1502.9,355 1509.2,355 C1517,355 1518.1,355.3 1522.1,358 C1528,361.9 1529.3,360.3 1524.6,354.9 C1517.8,346.9 1519.7,344 1533.5,340.6 C1537.4,339.6 1544.8,337.6 1550,336 C1555.2,334.4 1564.7,332.4 1571,331.5 C1577.3,330.6 1586.5,329 1591.5,327.9 C1602.3,325.6 1608.3,325.4 1610,327.5 C1611.1,328.8 1610.9,329.5 1609.1,331.3 C1606.3,334.4 1606.5,335.2 1610.2,337 C1612.6,338.1 1613.8,339.7 1614.9,343.2 C1615.8,345.7 1617.4,348.8 1618.4,349.9 C1620.2,351.9 1620.2,352.1 1618.5,354 C1617.5,355.1 1615.7,356 1614.4,356 C1613.1,356 1609.9,356.9 1607.2,357.9 C1601.7,360.1 1589.6,362 1581.5,362 C1578.5,362 1573.6,362.6 1570.6,363.4 C1563.9,365.2 1539.3,367.4 1533.6,366.8 L1529.5,366.3 L1529.8,376.4 C1530.2,385.6 1530,386.8 1528,389.3 C1523.5,395 1522.1,395.3 1488,396.7 C1470.7,397.4 1454.7,398.2 1452.5,398.4 C1450.3,398.6 1447.3,398.6 1445.8,398.3 Z M1534.6,394.2 C1533.1,392.4 1532.8,390.8 1533.2,384.6 C1533.8,372.1 1534.5,371.7 1566.5,367.5 C1592.8,364 1599.7,364.4 1612.5,370.5 C1617.5,372.8 1624.9,376.8 1629,379.4 C1633.1,381.9 1636.9,384 1637.5,384 C1638.2,384 1639.5,384.9 1640.5,386 C1641.9,387.6 1642,388.2 1641,389.5 C1638.1,393 1633.2,393.4 1600.8,392.8 C1595.9,392.7 1559,394.6 1545.5,395.6 C1537.2,396.2 1536.4,396.1 1534.6,394.2 Z M213.3,391.9 C199.1,390.1 194.9,383.7 198.3,369.2 C199.5,364.1 200,363.5 207.5,357.9 C211.8,354.7 215.8,352 216.4,352 C217,352 224.7,352.9 233.5,354.1 C248,355.9 255.9,357.4 264.5,360 C269.4,361.5 284.9,364.9 294.5,366.5 C304.9,368.3 308.2,369.5 310.5,372 C312,373.7 312,373.9 309.5,375.7 C308,376.7 303.9,379.9 300.2,382.7 C296.5,385.6 290.6,389.1 287,390.5 C280.5,393 280.3,393 250,392.9 C233.2,392.8 216.7,392.4 213.3,391.9 Z M1409.5,386.6 C1407.5,383.5 1408.4,379.4 1411.6,377.3 C1415.4,374.8 1425.4,375.9 1428.7,379.2 L1431.2,381.8 L1425.9,385.4 C1421.6,388.3 1419.6,389 1415.8,389 C1411.9,389 1410.8,388.6 1409.5,386.6 Z M184.5,387.4 C184,387.2 174.5,385.9 163.5,384.5 C135.8,381 109.3,376.5 107.5,375 C106.2,373.9 106,371.6 106.2,362.6 L106.5,351.5 L118.9,351.7 C129.8,351.8 133.5,352.4 149.9,356.3 C160.1,358.8 172.6,361.8 177.5,362.9 C187.9,365.3 191.2,367.3 191.6,371.5 C191.8,373.2 192.2,376.4 192.6,378.8 C193.1,382.5 192.9,383.5 190.9,385.6 C188.8,387.8 186.9,388.4 184.5,387.4 Z M1670.9,373 C1669,372 1666.1,369.4 1664.6,367.2 C1663.2,365.1 1660.8,362.8 1659.4,362.1 C1656.3,360.7 1656.5,357.6 1659.7,357.2 C1660.9,357 1664.8,358.2 1668.4,359.9 C1671.9,361.6 1675.5,363 1676.3,363 C1678.3,363 1683.2,368.9 1682.4,370.3 C1679.5,375.4 1676.7,376.1 1670.9,373 Z M1610.5,367 C1608.7,364.1 1616,361.2 1625.1,361 C1629,361 1633.2,364.3 1631.4,366 C1629.8,367.5 1611.4,368.5 1610.5,367 Z M297.6,361 C293.8,360 286.9,358.6 282.1,358 C270.9,356.5 243.8,349.8 233.1,345.8 C221.7,341.5 219,339.1 219,333.4 C219,329.4 219.6,328.3 226.1,321 C229.9,316.6 233.5,313 234,313 C234.5,313 238.3,312.5 242.4,311.9 C257.1,309.9 265.3,312.5 307.5,332.9 C327.2,342.5 331,344.9 331,348.4 C331,349.6 331.5,351.2 332,352 C334.1,355.4 325.6,360.5 315.3,362 C306.6,363.2 305.9,363.2 297.6,361 Z M182.9,359 C181,358 175.6,356.2 170.9,355 C166.3,353.8 157.3,351.4 151,349.5 C144.7,347.7 131.9,344 122.5,341.4 C113.2,338.8 104.9,336.1 104.1,335.4 C102.9,334.3 103.4,333 107.7,326.7 L112.8,319.3 L110.2,317.2 C107.6,315.1 107.5,315 109.4,313.5 C111.7,311.8 114.3,311.6 116.8,313 C117.7,313.5 126.8,315.9 137,318.4 C147.2,320.8 159.6,324.4 164.5,326.3 C171.6,329 196.4,336.9 206.1,339.6 C207,339.9 208.6,341 209.6,342.1 C211.4,344.2 211.4,344.2 207.5,347.6 C205.3,349.4 201.7,352.7 199.5,354.9 C192.8,361.5 189.3,362.4 182.9,359 Z M1282.2,345.8 C1276.7,340.3 1291.2,328.2 1297,333.5 C1299.5,335.7 1298.8,336.9 1291.9,342.5 C1286.3,347.2 1284.2,347.8 1282.2,345.8 Z M1380,344.5 C1379.3,343.7 1379,342 1379.4,340.8 C1379.7,339.5 1379.3,335.1 1378.4,330.9 C1376.9,324 1376.9,323.1 1378.3,320.9 C1379.4,319.4 1390.6,313 1409.9,303.2 L1440,287.9 L1449.2,288.3 C1454.3,288.6 1460.2,289.1 1462.3,289.5 C1468,290.6 1466.9,288.8 1458.3,283.1 L1450.6,277.9 L1446.3,281 C1440.3,285.2 1437.9,284.9 1433.9,279.8 C1432.1,277.4 1428.1,272.6 1425,269.1 L1419.5,262.7 L1406,263.4 C1388.6,264.2 1378.4,266.7 1375.6,270.6 C1372.4,275.3 1359.4,287.8 1345.9,299.2 C1326.2,315.9 1323.5,317.3 1320.5,312.6 L1318.9,310.2 L1313.7,313.2 C1310.8,314.9 1306.6,317.6 1304.2,319.2 C1297.7,323.5 1294.1,322.5 1297.6,317.2 C1298.6,315.7 1301.4,310.3 1303.9,305.3 C1307.9,297.4 1310.5,293.9 1322.4,281 C1334.6,267.8 1337.3,265.4 1344.4,261.6 C1351.5,257.7 1353.5,257.1 1361.1,256.5 C1368,255.9 1370.3,256.1 1372.8,257.4 C1377.3,259.7 1378.4,259.5 1383.2,254.8 C1394.3,243.8 1455.6,190 1460.5,186.9 C1465.9,183.5 1471,184.9 1471,189.7 C1471,191.3 1472.5,193.1 1476,195.6 C1479.7,198.2 1481,199.8 1481,201.6 C1481,203 1481.7,205.1 1482.5,206.4 C1483.9,208.5 1483.8,209 1481.1,212.7 C1479.3,215.2 1474.5,219 1468.9,222.6 C1463.4,226.1 1456.3,231.8 1451.5,236.6 C1447.1,241.1 1440,247.1 1435.8,250 C1428.9,254.7 1426.1,258 1428.9,258 C1429.4,258 1434.5,253.9 1440.2,249 C1445.8,244 1453.9,238.1 1458,235.8 C1462.1,233.6 1470.6,228 1476.8,223.4 C1486.4,216.3 1488.8,215 1492,215 C1494,215 1496.3,215.6 1496.9,216.4 C1497.6,217.2 1499.4,218.2 1501,218.5 C1506.2,219.6 1507.3,221.9 1506.8,231.1 L1506.5,239.3 L1502,243.2 C1499.5,245.3 1493,249.6 1487.5,252.7 C1471.3,261.8 1457.2,271.5 1458.4,272.8 C1458.9,273.2 1467.5,268.5 1486,257.6 C1495.1,252.3 1507.2,245.6 1513,242.8 L1523.5,237.8 L1532.5,240.5 C1541.4,243.1 1545,245.2 1545,247.5 C1545,248.2 1546.2,250.4 1547.6,252.5 L1550.1,256.3 L1548,258.5 C1544.7,262 1531.3,270.1 1522.1,274.1 C1517.4,276.1 1509.1,280.8 1503.7,284.4 C1498.3,288 1493.2,291 1492.4,291 C1491.6,291 1489.2,291.9 1487,293 C1484.8,294.1 1481.1,295 1478.7,295 C1476.3,295 1474.1,295.2 1473.8,295.5 C1473.5,295.8 1474.8,297.6 1476.6,299.5 C1478.4,301.5 1480.2,304.6 1480.6,306.6 C1481.5,311.6 1477.9,315.1 1468.8,318 C1465,319.2 1458.5,321.7 1454.4,323.6 C1450.4,325.4 1443.2,327.6 1438.5,328.5 C1433.8,329.4 1427.2,331.4 1423.8,332.9 C1416.8,336.1 1385.8,346 1383,346 C1382.1,346 1380.7,345.3 1380,344.5 Z M744.7,344.2 C741.5,342.9 740.2,338.5 739.5,326.3 C738.7,312.3 736.7,295.6 734.5,284.5 C733.6,280.1 732.6,269.8 732.3,261.7 C731.8,248.9 732,246.1 733.6,241.4 L735.4,236 L732.8,233.3 C727.3,227.3 725.2,206.7 728.9,193.9 C731.9,183.3 732.5,182.7 737.5,183.3 C742.7,184.1 747,181.4 747,177.4 C747,173.8 750.8,166 752.5,166 C754.2,166 754.6,178.7 754.1,228.5 C753.9,251.5 754.2,261.2 755.4,269.9 C756.3,276.2 757,285.2 757,289.9 C757,294.6 757.9,305.5 758.9,314 C760,322.5 761,332.4 761.2,336 C761.5,342 761.3,342.5 759,343.7 C756.3,345 747.7,345.3 744.7,344.2 Z M789.4,341 C788.3,340.6 783.8,339.6 779.4,339 C775.1,338.3 771,337.3 770.3,336.8 C766.9,334.1 765.4,316.9 764,265 C763.3,237.9 763.3,216.7 764,193.5 C765.1,160.6 765.6,155.9 768.7,148.7 C770.2,145.3 770.7,145 772.9,145.5 C774.3,145.9 775.6,146.5 775.8,146.9 C775.9,147.3 777.2,149.6 778.5,152 C779.9,154.5 781.8,158.1 782.7,160 C784.1,163.2 784.4,163.3 785.4,161.6 C786,160.6 787.3,158.8 788.2,157.6 C790,155.5 790,155.5 791.6,157.5 C792.9,159.2 793.1,160.9 792.3,169 C791.4,180.2 791.4,203.2 792.4,265.5 C793.1,310.2 794.6,333 797,335.4 C798.6,337 798.1,339.9 796.1,341 C793.8,342.2 792.3,342.2 789.4,341 Z M394.1,337.1 C393,335.1 385.9,331.8 378.7,329.9 C370.6,327.9 342.8,309.8 327.9,296.9 C320.7,290.7 314.2,284.3 313.4,282.8 C310.7,277.5 313.4,273.4 323.9,267.1 L329.4,263.8 L335.9,265.5 C339.5,266.5 343.4,267.7 344.5,268.3 C349.4,270.8 362.2,281.5 367.4,287.4 C370.6,291 377,297.2 381.7,301.2 C392.8,310.7 403,322.4 403,325.5 C403,326.8 402,329.5 400.9,331.5 C399.7,333.5 399,335.4 399.4,335.7 C400.2,336.6 398,339 396.4,339 C395.7,339 394.6,338.2 394.1,337.1 Z M321,332.6 C301.9,325.2 279.5,315 272.8,310.7 C262.4,304.1 261.7,298.1 270,288.1 C274.7,282.4 275.1,282.2 281.5,281.1 C287.6,280 288.8,280.1 296.3,282.5 C303.4,284.7 306,286.2 316,294 C322.3,299 332.9,306.9 339.5,311.6 C348.8,318.2 352.3,321.4 355.2,325.7 L359,331.4 L357,333.5 C355.4,335.2 352.9,335.9 345.5,336.8 C340.4,337.5 335.8,338 335.3,337.9 C334.9,337.8 328.4,335.5 321,332.6 Z M838.7,335.2 C835.9,332.1 835,320.6 835,285.5 C835,252.6 835.1,251.2 837.5,242 C839.5,234.1 840,230.1 840,218.4 C840,206 840.2,204.1 841.8,202.7 C842.8,201.7 844.6,201 845.7,201 C849.1,201 850.1,203.2 849.4,209.2 C849,213 849.3,216.8 850.5,221.5 C851.4,225.2 851.9,229.4 851.5,230.8 C851.1,232.3 850.5,243 850,254.6 C849.6,267.1 848.8,276.6 848.1,277.9 C847.2,279.6 847.3,281.4 849,286.9 C851.4,295 851.5,299.3 849.5,312.4 C848.7,317.9 848,324.9 848,328 C848,332.2 847.5,334.1 846.2,335.3 C843.8,337.5 840.7,337.4 838.7,335.2 Z M198.9,332 C197,331 191.6,329.2 186.9,328 C182.3,326.8 172.4,323.6 165,320.8 C157.6,318 147.7,314.5 143.1,312.9 C133.2,309.5 132.1,308.6 128.4,301.3 L125.6,295.8 L128.5,293.4 C132.1,290.6 133,289.7 137.5,284.7 C140.8,281 141.1,280.8 145.2,281.5 C150,282.3 156.4,284.7 165.7,289 C169.1,290.6 176.3,293.8 181.7,296 C213.5,309.3 216.1,310.6 218.4,314.2 C219.2,315.5 219.1,316.8 218.1,319.2 C217.4,321 216.1,324.3 215.3,326.5 C214.5,328.7 213.1,331.3 212.3,332.3 C210.2,334.6 203.6,334.5 198.9,332 Z M1656,329.6 C1656,326.5 1656.6,326.2 1657.3,329 C1657.6,330.1 1657.4,331.3 1656.9,331.6 C1656.4,331.9 1656,331 1656,329.6 Z M1339.8,328.5 C1337.7,327.1 1334.9,325.5 1333.5,325 C1330.1,323.7 1330.3,320.8 1334.1,317.6 C1335.8,316.2 1337.5,315 1337.9,315 C1338.2,315 1341.3,311.9 1344.7,308 C1348.1,304.2 1357.3,295.8 1365.2,289.4 C1373.1,283 1380.9,276.5 1382.5,275 C1385.3,272.3 1388.7,270.4 1397.2,266.5 C1400.5,265 1402,264.9 1409.7,265.9 C1419.5,267.2 1422.1,268.6 1426.2,274.6 C1430.5,281.1 1430.6,283 1426.8,288.1 C1423.7,292.1 1420.2,294.1 1390.5,309.3 C1370.9,319.2 1356.4,326 1354.7,326 C1353.1,326 1351,325.5 1349.9,325 C1348.3,324.1 1348,324.3 1348,326.3 C1348,328.7 1346.3,331 1344.5,331 C1343.9,331 1341.8,329.9 1339.8,328.5 Z M406.7,318.6 C401.7,314.1 388.3,300.8 377.1,289.1 C358.2,269.4 356.8,267.7 357.4,264.9 C358.1,261.1 361.8,256.2 365.1,254.5 C368.7,252.6 380.5,250.6 382.3,251.7 C387.9,254.8 401.9,268.4 406.3,275 C409.1,279.1 413.9,285.7 417,289.5 C427.2,302.1 433,310.7 433,313.3 C433,316.7 429.6,320.6 425.6,322 C423.8,322.6 421.4,324 420.5,325 C419.5,326.1 418.1,327 417.3,327 C416.6,327 411.8,323.2 406.7,318.6 Z M806.4,323.6 C803.9,321.1 803,319.3 803,316.9 C803,315 802.4,307.4 801.5,300 C798.1,268.7 797.7,260.1 798.3,229.4 L798.8,198.5 L802.4,189.2 C804.4,184 806,179.2 806,178.5 C806,177.8 806.9,176.2 807.9,174.9 L809.8,172.5 L812.9,175.4 C815.8,178.2 816,178.8 816,185.6 C816,192.4 816.1,192.8 818,192.3 C819.2,192 820.9,192.5 822,193.5 C824.3,195.6 824.6,200.7 823,212.2 C822.3,217.1 822.3,227.6 823,244.5 C823.6,258.3 824.5,279 824.9,290.5 C825.4,302.1 826.1,313.6 826.5,316.1 C827.1,320.3 826.9,320.9 824.6,322.8 C822.3,324.5 814.3,327 810.9,327 C810.3,327 808.3,325.5 806.4,323.6 Z M661.7,323.2 C660.2,322.3 656.1,317.5 652.5,312.7 C647.8,306 644.5,302.8 639.8,299.7 C632.3,294.7 630,290.9 632.1,287.1 C635,282 639.3,283.3 651.4,292.7 C666.5,304.4 676.7,318 674.6,323.5 C673.8,325.6 665.3,325.5 661.7,323.2 Z M486.1,318.2 C482.8,314.6 465.6,287.9 456.2,271.4 C453.9,267.5 450.2,260.1 448,254.9 C445.7,249.7 443.2,244.7 442.3,243.8 C440.2,241.4 441,238.7 444.5,237.1 C447,235.9 448.8,235.9 455.9,236.9 C466.2,238.4 468,239.3 475.2,246.7 C481.9,253.6 487.5,262.7 491.5,273 C493,277.1 496.3,284.5 498.7,289.4 C501.1,294.3 503,299.3 503,300.5 C503,303.2 499.6,306.4 494.7,308.5 C490.8,310.1 490.5,310.6 492,313 C492.8,314.2 493.7,314.1 498.5,311.7 C505.2,308.5 506,308.4 509.4,311.1 C512.4,313.5 512.9,318 510.4,320.1 C509.4,320.9 505.2,321.5 499.3,321.7 L489.8,322.1 L486.1,318.2 Z M443.6,315.9 C442.1,314.7 436.6,307.2 431.3,299.1 C426.1,291.1 417.8,279 412.9,272.3 C404.8,261.1 404,259.6 404,255.5 C404,250.2 405.9,246 409.6,243.1 C411.8,241.4 413.7,241 420.5,241 C430.8,241 432,241.9 440.5,254.9 C455,277.4 466.5,300.3 466.5,306.7 C466.5,312.1 464.3,314.2 456.4,316.4 C448.5,318.5 446.8,318.4 443.6,315.9 Z M864.3,315.3 C862.4,312.4 862.4,313.1 862.8,227.1 L863,188.8 L870.2,181.4 C877.7,173.7 880.4,172.5 883.2,175.8 C885.9,178.7 886.2,181.9 885,190.8 C883.5,202 882.5,205.2 879.5,208 C876.8,210.5 875.6,210.1 873,205.8 L871.2,202.7 L870,207 C868.9,211.1 869,214.2 870.6,221.7 L871.2,225 L874.1,223.3 C877.8,221.1 880.4,222.4 880.8,226.6 C880.9,228.2 881.7,232.4 882.6,235.8 C884.1,241.5 884.1,244.5 883.1,262.3 C880.8,302.6 879.8,307.3 872.5,313.5 C869.6,316 867,318 866.7,318 C866.3,318 865.3,316.8 864.3,315.3 Z M1121.7,317.3 C1121.3,317 1121,314.9 1121,312.8 C1121,308.4 1119.8,307.9 1118.2,311.5 C1116.9,314.3 1115.3,314.6 1112.4,312.6 C1111.3,311.8 1109.3,311 1108,310.8 C1105.6,310.5 1105.5,310.3 1105.9,303.2 C1106.3,294.4 1109.6,282.1 1118.1,257.2 C1123.7,240.7 1124.7,238.5 1127.8,236.2 C1130.7,234 1132.6,233.5 1138.4,233.2 L1145.6,232.8 L1149.7,237.3 L1153.8,241.8 L1153.3,248.1 C1152.7,254.5 1144.6,277.7 1136.6,295.9 C1134.6,300.4 1133,305.1 1133,306.4 C1133,307.8 1131.2,310.7 1128.7,313.4 C1124.5,317.9 1123,318.7 1121.7,317.3 Z M1051.5,314.9 C1050,312.5 1052.6,308.4 1062.1,298.6 C1068.4,292 1074.9,286.4 1079.6,283.5 C1087.2,278.8 1090.4,278.1 1092.3,281.1 C1094.1,284 1089.4,289.6 1078.6,297.7 C1073.1,301.9 1065.9,307.7 1062.8,310.7 C1057.3,315.9 1053,317.5 1051.5,314.9 Z M1161,312.5 C1160.1,311.5 1159.9,309.3 1160.3,306 C1160.8,302.1 1160.6,301 1159.5,301 C1157.4,301 1155,303.9 1155,306.3 C1155,309.9 1152.2,313 1149.1,313 C1144.5,313 1143.5,310.8 1143.6,300.6 C1143.7,283.4 1151.5,258 1160.7,244.8 C1168,234.4 1170.4,233.7 1187.7,237.5 C1190.8,238.2 1196,242.9 1196,244.9 C1196,247 1182.4,278.1 1175.3,292.6 C1172.6,298 1169.7,304.1 1169,306 C1167.7,309.5 1164.3,314 1162.9,314 C1162.6,314 1161.7,313.3 1161,312.5 Z M923.7,310.3 C922.5,309.2 923,305.7 924.5,304 C925.4,303 926.4,300.3 926.8,297.9 C928.1,290.1 933.5,291.9 936.6,301.2 C938.1,305.8 938.1,306.3 936.6,307.8 C935.3,309.1 934.6,309.2 933.1,308.3 C931.5,307.3 930.9,307.5 929.4,309.1 C927.7,311 924.9,311.6 923.7,310.3 Z M207.4,301.6 C198.6,297.1 184.8,290.4 176.7,286.6 C168.7,282.9 160.9,278.5 159.4,276.9 C156.9,274.3 156.8,273.8 157.5,268.3 C158.1,263.2 158.7,262 162.3,258.8 C166,255.3 166.8,255 172.3,255 C177.6,255 179.7,255.7 191.4,261.5 C198.6,265 210.4,271.6 217.5,276 C224.7,280.4 235.7,286.7 242.1,290 C255.5,296.9 256.5,297.7 255,301.4 C253.7,304.9 247.9,307.4 242.9,306.6 C240.5,306.2 237.3,306.7 233.5,308 C230.3,309.1 226.7,309.9 225.6,309.8 C224.4,309.8 216.3,306 207.4,301.6 Z M532,300.5 C529.7,297.8 524.4,297 518.8,298.7 L513.6,300.2 L510.7,296.8 C505.4,290.7 485,248 485,243.1 C485,238.1 493.7,232 500.9,232 C504,232 506.1,232.9 511,236.6 C516.3,240.6 517.7,242.5 521.6,250.2 C525.4,257.8 530.5,273.6 533.4,287.2 C533.7,288.6 535.1,291.2 536.5,292.8 C539.5,296.4 539.6,298.1 537.2,300.3 C534.9,302.4 533.6,302.4 532,300.5 Z M579.3,295.5 C574.3,290 573.1,287.9 572,283.2 C571.3,280.1 568.3,269.5 565.3,259.7 C559.4,240.6 559.2,237.6 563.6,236 C566.4,234.9 576,234.7 578.4,235.6 C579.2,235.9 582.4,239.2 585.4,242.9 C590.3,248.9 591.2,250.7 594.4,261.9 C596.4,268.8 599,279.2 600.2,285.1 C602.1,295.2 602.2,296.1 600.6,298.4 C599.3,300.4 598.2,300.9 595.2,300.9 C593.2,300.9 590.1,301.1 588.4,301.5 C585.6,302.1 584.9,301.7 579.3,295.5 Z M549.3,298.8 C548.2,297.5 546.5,294.5 545.6,292 C544.6,289.5 542.5,285.2 540.9,282.4 C537.9,277.1 530.5,259.4 527.5,250.2 C525.6,244.4 526.1,235 528.3,233.2 C529,232.7 532,232 535,231.7 C544.9,230.6 548.8,234.7 556.4,254.3 C558.8,260.4 562,268.1 563.4,271.3 C565.5,275.8 566,278.6 566,284.6 C566,292 566,292.1 562.9,293.8 C561.1,294.7 558.2,296.7 556.5,298.3 C552.6,301.6 551.9,301.6 549.3,298.8 Z M609.1,287.4 C607.4,284.3 603.6,275.1 600.5,267.1 C595.6,253.9 595,251.6 595,244.6 C595,237 595.1,236.7 598.5,233.3 C602,229.8 602.2,229.7 608.5,230.3 C615.4,231 618.1,232 621.8,235.3 C624.5,237.8 624.5,239.7 622,253 C620.9,258.8 620,266.2 620,269.5 C619.9,274.9 616.7,288.6 614.7,291.8 C613.3,294 612.2,293.1 609.1,287.4 Z M248,287.6 C243.9,285.3 236,280.7 230.5,277.3 C225,274 214.8,267.9 207.8,263.7 C193.8,255.3 174,240.6 174,238.5 C174,237.8 175.2,235.8 176.6,234.1 C180.3,229.7 184.4,229.8 187.1,234.5 C189.6,238.7 190.9,238.8 195.8,235.5 C199,233.3 200.6,233 207.8,233 C216.1,233 216.3,233.1 224.4,237.9 C228.8,240.6 238.1,246.9 245,251.9 C251.9,256.8 261.1,263.3 265.5,266.3 C277.9,274.7 277.7,273.7 267.9,283.6 C262.6,288.9 258.8,292 257.5,291.9 C256.4,291.8 252.1,289.9 248,287.6 Z M290.4,274.3 C266.3,259 233.5,236.8 217.7,224.9 C211.2,220 205.5,216 205,216 C204.5,216 203.3,214.9 202.4,213.5 C201.1,211.5 201,210.7 202,209.5 C203.6,207.6 210,207.6 214.5,209.4 C217.5,210.7 218.5,210.6 224.2,208.9 C227.7,207.9 231.6,207 233,207 C236,207 249,215.5 258,223.5 C261.6,226.6 268.8,232.5 274.1,236.6 C279.4,240.6 286.4,246.2 289.6,249.1 C292.9,251.9 298,255.9 301.1,258 C309.2,263.6 311.6,270.6 307,275.6 C303.4,279.3 297.8,278.9 290.4,274.3 Z M312.5,261.8 C311.4,261.2 308.4,258.5 305.8,255.9 C303.1,253.2 291,242.9 278.7,232.9 C249,208.5 233.1,194.3 232.4,191.3 C231.4,187.4 232.8,181.8 235.4,179.2 C238.8,175.8 245.4,175.2 251.2,177.8 C257.5,180.5 273.6,194.8 293.4,215.2 C302.7,224.7 315.2,237.6 321.3,243.8 L332.3,255.1 L330,257.5 C328.7,258.9 326.7,260 325.4,260 C324.2,260 321.6,260.7 319.7,261.5 C315.4,263.3 315.1,263.3 312.5,261.8 Z M1087,261.1 C1085.5,258.2 1085.7,242.8 1087.4,240.5 C1090.6,236.1 1094.9,242.8 1095.3,252.9 C1095.5,257.5 1095.1,259.2 1093.6,260.9 C1091.2,263.5 1088.4,263.6 1087,261.1 Z M342.3,258.4 C340.8,256.4 323.7,238.9 304.3,219.5 C283.8,198.9 268.8,183.1 268.5,181.7 C267.6,178.3 270.2,173.7 274.5,171 C277.5,169.2 278.9,168.9 282.8,169.5 C292.5,170.9 296.3,173.5 310.2,187.9 C317.4,195.4 326,205.1 329.3,209.5 C339.5,223 350.6,236.3 355.4,241 C361.8,247.1 361.6,249.7 354.7,256.7 C351.7,259.6 348.4,262 347.3,262 C346.1,262 344,260.4 342.3,258.4 Z M1622.8,256.8 C1622.6,254.7 1622.5,253 1622.7,253 C1623.7,253 1624.6,256.9 1624,258.5 C1623.4,260.1 1623.2,259.7 1622.8,256.8 Z M1366.5,252.9 C1362.7,252.4 1357.6,252.2 1355.2,252.6 C1350.4,253.2 1348,251.9 1348,248.8 C1348,244.3 1383,203.7 1402.7,185.4 C1422.6,166.9 1420.6,168.3 1429.8,167 C1439.9,165.6 1444.4,166.8 1449.5,172 C1453.6,176.2 1454.9,181.4 1453.1,185.9 C1451.9,188.6 1445.3,194.6 1425.5,210.9 C1420.6,215 1409.1,225.6 1400,234.5 C1390.9,243.4 1382.1,251.5 1380.3,252.4 C1376.8,254.1 1376.8,254.1 1366.5,252.9 Z M387.8,249.5 C387.3,249 380,247.6 371.8,246.5 C367.3,245.9 366.6,245.4 360.8,238.2 C357.4,234 350.3,225.8 345,220 C332.3,205.9 312.4,181.1 311.5,178 C311.1,176.7 309.8,174.3 308.7,172.8 C306.7,170.2 306.7,170 308.4,168.1 C310.7,165.5 318.1,164 327.9,164 L335.8,164 L342.2,171.3 C351.6,181.9 359.2,192.1 373.5,213.9 C380.5,224.5 388.7,236.2 391.8,239.8 L397.3,246.3 L395.1,248.2 C392.9,249.9 389,250.6 387.8,249.5 Z M431.9,231.7 C429.2,229.7 427.3,227.3 426.8,225.2 C426.3,223.4 422.6,216.9 418.5,210.6 C406.8,192.9 397.3,173.8 396.5,166.4 C395.7,159.2 395.9,158.9 405.2,156.6 C414.8,154.3 415.8,154.5 420.3,159.3 C428,167.5 445.8,196.4 457.2,219 C461.6,227.8 461.8,228.6 460.3,230.2 C459.3,231.3 457.3,232 455.1,232 C453.1,232 449,232.7 446,233.5 C438.2,235.6 436.7,235.4 431.9,231.7 Z M470.6,230.8 C468.6,228.5 467,226.3 467,225.8 C467,224.7 449.9,194.6 443.5,184.4 C436.6,173.5 434.2,166.3 435.9,162.1 C437.4,158.6 440.7,157.3 450.5,156.4 C459.7,155.5 461.6,157.2 472.9,177 C478,186.1 484.6,198.9 487.6,205.4 C490.6,212 493.7,218.1 494.6,219.1 C495.5,220.1 496,222.1 495.8,223.7 C495.5,226.1 494.4,227 487,230.7 C482.3,233 477.5,234.9 476.3,234.9 C475,235 472.8,233.4 470.6,230.8 Z M547.5,229.3 C537.8,224.4 536.2,222.1 528,201.6 C514.8,168.4 512,154.5 517.6,150.1 C521.3,147.2 526.3,146.5 536,147.7 L544.5,148.8 L553,144.4 C561.9,139.8 568.1,138.7 571.1,141.3 C574.8,144.3 582.5,165.6 585.9,182 C586.9,186.7 590.2,197.4 593.4,205.8 L599.1,221.2 L597.2,224.3 C594.7,228.7 588.4,232.2 584,231.7 C582.1,231.5 577.7,230.2 574.2,229 L568,226.6 L562.5,229.3 C555.7,232.6 553.9,232.6 547.5,229.3 Z M512.2,229.5 C510.4,228.7 506.6,226.1 503.9,223.7 C499.5,219.9 497.7,216.8 488.9,198.9 C477.9,176.7 474,167.2 474,163.1 C474,159.6 477.9,153.4 481.6,151 C483.5,149.7 486.2,149 489.5,149 C494.1,149 495.2,149.5 500.5,153.8 C507.4,159.3 510.7,165 515.5,179.4 C517.3,184.9 521.1,195.9 523.9,203.8 C526.7,211.7 529,219.3 529,220.9 C529,224.6 523.4,229.9 518.9,230.5 C517,230.8 514,230.4 512.2,229.5 Z M618.4,229.1 C616.1,228.1 612.9,226.9 611.3,226.6 C607.3,225.7 602.4,220.3 601.7,216 C600.2,207.2 597.9,198.9 595.1,191.6 C589.8,177.7 583,155.3 583,151.3 C583,144 588.8,139.4 596.6,140.6 C602.7,141.5 606.4,144.8 608,150.7 C608.6,153.4 609.8,157.1 610.5,159 C611.2,160.9 612.1,164.4 612.5,166.7 C612.9,169.1 615.1,174.3 617.5,178.5 C621,184.7 621.9,187.3 622.4,193.2 C623.3,201.8 627.5,220.4 629.5,224.1 C630.8,226.5 630.7,226.9 628.7,228.9 C625.9,231.5 623.7,231.5 618.4,229.1 Z M1139.2,225.3 C1135.1,224.8 1134.6,223.5 1136.3,218.5 L1137.7,214.5 L1132.6,211.3 C1127.1,207.7 1126.4,207.5 1125.5,209 C1124.6,210.5 1122,210.2 1121.3,208.4 C1121,207.6 1121.6,205.9 1122.7,204.7 C1123.8,203.5 1125.3,200.3 1125.9,197.5 C1126.6,194.8 1128.2,189.8 1129.4,186.5 C1130.7,183.2 1133,177.1 1134.5,173 C1140.3,157.6 1142.8,153.2 1149.3,146.9 C1156.7,139.5 1159.3,138.3 1169.3,137.4 L1177,136.7 L1181,141.1 C1183.2,143.5 1185,146 1185,146.6 C1185,149.5 1180.5,160 1175.6,168.8 C1168.7,181 1161.9,196.3 1159,206 C1156.8,213.6 1151.2,223.3 1147.9,225 C1146.1,226 1145.3,226 1139.2,225.3 Z M1551,222.1 C1551,221 1551.4,219.9 1551.9,219.6 C1552.3,219.3 1552.5,220.2 1552.2,221.5 C1551.7,224.5 1551,224.8 1551,222.1 Z M1571.6,220.3 C1571,218.9 1571.1,218.8 1572.1,219.7 C1572.8,220.4 1573.1,221.2 1572.8,221.5 C1572.5,221.8 1571.9,221.3 1571.6,220.3 Z M654,208.4 C651,205.9 644.6,201.2 639.8,197.9 C632.3,192.8 631,191.5 631,189.1 C631,185.2 636.6,180 640.9,180 C643.8,180 645.5,181.4 655.4,191.6 C668.4,205.2 669.8,207.5 666.7,210.8 C663.6,214.1 660.2,213.5 654,208.4 Z M1052.7,208.3 C1050.5,206.1 1052.6,202.4 1061.6,192.6 C1066.9,186.8 1073.2,179.4 1075.7,176.1 C1079.5,170.9 1080.9,169.8 1085.2,168.5 C1091.5,166.7 1094.6,167.8 1097.4,173.1 C1099.3,176.6 1099.3,176.7 1097.4,180.6 C1096.1,183.2 1094.1,185.3 1091,186.9 C1088.5,188.3 1081.6,192.8 1075.7,196.9 C1069.7,201.1 1063.2,205.5 1061.2,206.7 C1057.5,208.9 1054,209.6 1052.7,208.3 Z M1546,204.9 C1543.2,203.5 1542.9,203.1 1544.6,203 C1545.7,203 1547.5,203.9 1548.5,205 C1550.6,207.3 1550.6,207.3 1546,204.9 Z M676.7,190.2 C674.7,188 674.7,187.6 676.1,181 C677.3,175.3 682,169 685.1,169 C686.1,169 687.6,170 688.4,171.3 C689.7,173.3 689.7,174.1 688.4,178.6 C687.1,183.3 681,192 679.1,192 C678.7,192 677.6,191.2 676.7,190.2 Z M1056.5,164.3 C1056.2,162.7 1055.2,160 1054.3,158.3 C1052.3,154.1 1053.2,152 1056.8,152 C1060.7,152 1064.6,155.2 1066,159.5 C1067.7,164.5 1066,167 1061.1,167 C1057.7,167 1057.1,166.7 1056.5,164.3 Z M1080.4,160.1 C1074.8,157.9 1073,156.2 1073,153.2 C1073,148.4 1053.5,119.5 1046.1,113.2 C1043.2,110.8 1038.3,104.9 1035.1,100.2 C1028.8,90.8 1019.4,81.8 1011.5,77.6 C999,70.9 998.1,69.6 1002.6,64.9 C1004.7,62.7 1006.3,62 1009.2,62 C1012.5,62 1014.1,63 1021.8,69.8 C1026.6,74 1033,79.5 1036,82 C1054.1,96.6 1059.8,102.3 1072,117.5 C1091,141.3 1096.7,154.2 1090.7,159.8 C1088,162.4 1086,162.4 1080.4,160.1 Z M1127.3,152.3 C1126.5,150.2 1125.2,148.1 1124.4,147.7 C1123.6,147.3 1123,145.9 1123,144.7 C1123,139 1129.5,138.2 1133.4,143.3 C1136.4,147.3 1136.8,152 1134.2,154.3 C1131.2,157 1129,156.4 1127.3,152.3 Z M677.7,143.3 C676.1,141.7 677.3,139.3 681.8,135.3 C685.9,131.5 687.1,131 691,131.1 C693.5,131.1 697.1,131.6 699,132.3 C702.1,133.4 702.5,133.9 702.5,137 C702.5,140 702.1,140.5 699.9,140.8 C698.5,141 696.8,140.4 696,139.6 C694,137.1 691.3,137.7 689,141 C687.2,143.5 686.2,144 682.6,144 C680.3,144 678,143.7 677.7,143.3 Z M702.5,128.6 C700.8,127.9 698.9,126.5 698.1,125.6 C695.7,122.7 699.2,117.9 709.8,109.2 C719.7,101.1 724.4,98 727.1,98 C729.3,98 734,101.8 734,103.6 C734,104.5 730.7,108.4 726.7,112.3 C722.7,116.3 718,121.4 716.2,123.7 C713.2,127.5 712,128.3 707,129.5 C706.2,129.7 704.1,129.3 702.5,128.6 Z" id="Combined-Shape"></path>
        </g>
    </g>
</svg>